PathFileType	4	(X/Y/Z)	D:\TRACE\v60_Jaco2_6-2-23\JustBodyDRS_Motion2_4-platform.trc
DataRate	CameraRate	NumFrames	NumMarkers	Units	OrigDataRate	OrigDataStartFrame	OrigNumFrames
100.00	100.00	      25	5	mm	100.00	1	      6921
Frame#	Time	Left_Front			Right_Front			Left_Aft			Right_Aft			Post			
		X1	Y1	Z1	X2	Y2	Z2	X3	Y3	Z3	X4	Y4	Z4	X5	Y5	Z5	

1	0.000	-800.67786	8.70935	-638.91504	769.39166	10.07412	-644.19116	-709.00555	7.99955	496.15359	733.18176	7.09239	505.92810	-14.43070	1307.92236	-962.23157	
2	0.010	-800.67352	8.77444	-638.88104	769.54456	10.03176	-644.11816	-708.98346	7.98409	496.13287	733.20398	7.10285	505.92343	-14.41675	1307.95032	-962.22980	
3	0.020	-800.67603	8.71003	-638.91876	769.48895	10.02261	-644.15149	-708.96277	7.97893	496.18808	733.14581	7.07318	505.95392	-14.39792	1307.92212	-962.24609	
4	0.030	-800.70679	8.71716	-638.87329	769.53900	10.02571	-644.15979	-708.99493	7.94315	496.16388	733.14917	7.07470	505.95154	-14.39895	1307.93103	-962.27264	
5	0.040	-800.67603	8.69190	-638.90332	769.35968	10.00870	-644.22003	-708.94519	7.95770	496.20096	733.11237	7.06256	505.95627	-14.39353	1307.90393	-962.23926	
6	0.050	-800.67969	8.73792	-638.91254	769.41290	10.04761	-644.18500	-708.97504	7.96780	496.14026	733.18298	7.07991	505.93573	-14.34184	1307.91174	-962.27563	
7	0.060	-800.64600	8.75373	-638.94592	769.36414	10.04680	-644.19843	-708.99353	7.98235	496.19293	733.22186	7.11979	505.93185	-14.43383	1307.94434	-962.24744	
8	0.070	-800.68762	8.73113	-638.91272	769.40436	10.03759	-644.19342	-709.00238	7.96203	496.13882	733.24207	7.09585	505.94595	-14.38576	1307.95569	-962.22827	
9	0.080	-800.71613	8.71830	-638.90051	769.34229	10.01515	-644.21735	-708.97852	7.93048	496.15860	733.14740	7.04457	505.95407	-14.44877	1307.90100	-962.25238	
10	0.090	-800.66547	8.68725	-638.89703	769.50806	10.00940	-644.16693	-708.94684	7.93680	496.18286	733.12097	7.06650	505.94199	-14.45103	1307.92749	-962.24164	
11	0.100	-800.67590	8.77989	-638.93878	769.36578	10.03546	-644.16864	-708.96667	7.97371	496.19061	733.15973	7.09370	505.95465	-14.35796	1307.93506	-962.22754	
12	0.110	-800.66602	8.70831	-638.92444	769.54120	10.00531	-644.12585	-708.95135	7.97573	496.16046	733.19519	7.10820	505.94598	-14.41747	1307.95898	-962.23572	
13	0.120	-800.65253	8.73897	-638.93195	769.40845	10.04509	-644.18475	-708.96429	7.94631	496.18951	733.25311	7.10420	505.93872	-14.35773	1307.93237	-962.24042	
14	0.130	-800.69287	8.69201	-638.86261	769.41437	10.01882	-644.23334	-708.94562	7.94930	496.17157	733.14215	7.08020	505.95755	-14.42783	1307.95093	-962.26886	
15	0.140	-800.76855	8.73565	-638.83643	769.47424	10.00897	-644.17297	-708.98645	8.00306	496.19171	733.12415	7.05021	505.95471	-14.42129	1307.96167	-962.25140	
16	0.150	-800.66791	8.75035	-638.88947	769.35120	10.02143	-644.21674	-708.96954	7.99291	496.15042	733.16595	7.09244	505.95715	-14.35297	1307.89673	-962.27527	
17	0.160	-800.66351	8.72446	-638.94684	769.50159	10.01053	-644.13074	-708.96722	7.99709	496.16367	733.15588	7.10052	505.95950	-14.41928	1307.94446	-962.24194	
18	0.170	-800.68353	8.70600	-638.88171	769.48199	9.98425	-644.13837	-708.99585	7.99116	496.18683	733.12482	7.09303	505.96088	-14.34605	1307.95593	-962.26349	
19	0.180	-800.69208	8.76029	-638.89789	769.53552	10.00922	-644.13391	-708.99719	7.95018	496.15115	733.13776	7.07304	505.97543	-14.38299	1307.93433	-962.24957	
20	0.190	-800.71198	8.68780	-638.84637	769.34674	10.04756	-644.20129	-708.97430	7.91104	496.19284	733.12366	7.08026	505.94775	-14.38384	1307.92737	-962.24774	
21	0.200	-800.68732	8.73817	-638.91150	769.50403	10.01739	-644.16443	-708.94537	7.96732	496.16046	733.19244	7.10416	505.95624	-14.41323	1307.90430	-962.26050	
22	0.210	-800.63470	8.77848	-638.89288	769.40051	10.08133	-644.15662	-708.94867	7.96510	496.18069	733.20801	7.11639	505.95187	-14.39061	1307.91528	-962.24799	
23	0.220	-800.65387	8.75118	-638.96436	769.43469	10.05840	-644.19330	-708.97882	7.99997	496.20129	733.16547	7.10111	505.93735	-14.41661	1307.95105	-962.24420	
24	0.230	-800.65472	8.72503	-638.95135	769.41638	10.04522	-644.15015	-708.96063	7.96477	496.21164	733.22620	7.12687	505.95099	-14.36492	1307.95117	-962.23712	
25	0.240	-800.68256	8.75184	-638.88007	769.40155	10.02130	-644.23450	-708.94672	7.90594	496.19168	733.11566	7.07076	505.97290	-14.40407	1307.91675	-962.23645	
